<svg width="331.963867" height="16.744629" viewBox="0 0 331.964 16.7446" fill="none" xmlns="http://www.w3.org/2000/svg" xmlns:xlink="http://www.w3.org/1999/xlink">
	<desc>
			Created with Pixso.
	</desc>
	<defs/>
	<path id="Text" d="M39.27 0L40.27 0L40.27 16.74L39.27 16.74L39.27 0ZM74.03 3.75C74.03 4.19 73.66 4.55 73.2 4.55C72.74 4.55 72.36 4.19 72.36 3.75C72.36 3.32 72.74 2.96 73.2 2.96C73.66 2.96 74.03 3.32 74.03 3.75ZM200.59 3.75C200.59 4.19 200.21 4.55 199.76 4.55C199.3 4.55 198.92 4.19 198.92 3.75C198.92 3.32 199.3 2.96 199.76 2.96C200.21 2.96 200.59 3.32 200.59 3.75ZM6.42 13.46L0 13.46L0 12.56L3.36 8.89C4.53 7.6 5.09 6.9 5.09 5.96C5.09 4.89 4.24 4.21 3.14 4.21C1.96 4.21 1.21 4.98 1.21 6.14L0.04 6.14C0.04 4.35 1.39 3.14 3.18 3.14C4.97 3.14 6.24 4.39 6.24 5.96C6.24 7.09 5.72 7.97 3.97 9.84L1.69 12.29L1.69 12.36L6.42 12.36L6.42 13.46ZM15.33 8.37C15.33 11.69 14.03 13.6 11.79 13.6C9.54 13.6 8.25 11.69 8.25 8.37C8.25 5.07 9.56 3.14 11.79 3.14C14.02 3.14 15.33 5.07 15.33 8.37ZM23.64 13.46L17.22 13.46L17.22 12.56L20.58 8.89C21.76 7.6 22.31 6.9 22.31 5.96C22.31 4.89 21.47 4.21 20.36 4.21C19.18 4.21 18.43 4.98 18.43 6.14L17.26 6.14C17.26 4.35 18.61 3.14 20.4 3.14C22.19 3.14 23.46 4.39 23.46 5.96C23.46 7.09 22.95 7.97 21.2 9.84L18.91 12.29L18.91 12.36L23.64 12.36L23.64 13.46ZM32.57 10.69C32.57 12.36 31.1 13.6 29.13 13.6C27.15 13.6 25.74 12.52 25.67 10.91L26.92 10.91C27 11.9 27.93 12.5 29.11 12.5C30.42 12.5 31.36 11.77 31.36 10.69C31.36 9.57 30.5 8.79 28.95 8.79L28.14 8.79L28.14 7.69L28.95 7.69C30.16 7.69 31 7 31 5.92C31 4.89 30.27 4.21 29.15 4.21C28.09 4.21 27.13 4.81 27.08 5.82L25.89 5.82C25.95 4.22 27.41 3.14 29.17 3.14C31.05 3.14 32.19 4.42 32.19 5.86C32.19 7.01 31.55 7.86 30.52 8.17L30.52 8.25C31.8 8.46 32.57 9.4 32.57 10.69ZM265.26 5.82L264.07 5.82C263.95 4.82 263.01 4.23 261.78 4.23C260.43 4.23 259.53 4.95 259.53 5.92C259.53 7.02 260.75 7.41 261.5 7.61L262.54 7.89C263.59 8.17 265.4 8.79 265.4 10.69C265.4 12.34 264.07 13.64 261.72 13.64C259.53 13.64 258.18 12.5 258.06 10.83L259.33 10.83C259.43 11.99 260.51 12.53 261.72 12.53C263.13 12.53 264.21 11.79 264.21 10.67C264.21 9.66 263.25 9.28 262.18 8.98L260.93 8.63C259.33 8.17 258.34 7.35 258.34 5.98C258.34 4.27 259.87 3.14 261.82 3.14C263.79 3.14 265.21 4.28 265.26 5.82ZM307.66 5.82L306.47 5.82C306.35 4.82 305.41 4.23 304.18 4.23C302.83 4.23 301.93 4.95 301.93 5.92C301.93 7.02 303.14 7.41 303.9 7.61L304.93 7.89C305.99 8.17 307.8 8.79 307.8 10.69C307.8 12.34 306.47 13.64 304.12 13.64C301.93 13.64 300.58 12.5 300.46 10.83L301.73 10.83C301.83 11.99 302.9 12.53 304.12 12.53C305.53 12.53 306.61 11.79 306.61 10.67C306.61 9.66 305.65 9.28 304.58 8.98L303.32 8.63C301.73 8.17 300.74 7.35 300.74 5.98C300.74 4.27 302.27 3.14 304.22 3.14C306.19 3.14 307.6 4.28 307.66 5.82ZM55.22 8.35C55.22 11.53 53.47 13.46 50.37 13.46L47.23 13.46L47.23 3.28L50.51 3.28C53.47 3.28 55.22 5.19 55.22 8.35ZM105.91 12.29C105.65 12.7 105.15 13.62 103.68 13.62C101.77 13.62 100.44 12.09 100.44 9.66C100.44 7.25 101.77 5.72 103.71 5.72C105.2 5.72 105.65 6.64 105.91 7.04L106.01 7.04L106.01 3.28L107.18 3.28L107.18 13.46L106.05 13.46L106.05 12.29L105.91 12.29ZM134.63 12.29C134.37 12.7 133.87 13.62 132.4 13.62C130.49 13.62 129.16 12.09 129.16 9.66C129.16 7.25 130.49 5.72 132.42 5.72C133.91 5.72 134.37 6.64 134.63 7.04L134.73 7.04L134.73 3.28L135.9 3.28L135.9 13.46L134.77 13.46L134.77 12.29L134.63 12.29ZM163.42 12.29C163.16 12.7 162.67 13.62 161.2 13.62C159.28 13.62 157.95 12.09 157.95 9.66C157.95 7.25 159.28 5.72 161.22 5.72C162.71 5.72 163.16 6.64 163.42 7.04L163.52 7.04L163.52 3.28L164.7 3.28L164.7 13.46L163.56 13.46L163.56 12.29L163.42 12.29ZM180.27 12.29C180.01 12.7 179.51 13.62 178.04 13.62C176.13 13.62 174.8 12.09 174.8 9.66C174.8 7.25 176.13 5.72 178.06 5.72C179.55 5.72 180.01 6.64 180.27 7.04L180.37 7.04L180.37 3.28L181.54 3.28L181.54 13.46L180.41 13.46L180.41 12.29L180.27 12.29ZM210.91 6.78C209.75 6.78 208.9 7.53 208.9 8.86L208.9 13.46L207.73 13.46L207.73 3.28L208.9 3.28L208.9 7.02L209 7.02C209.36 6.23 210.05 5.72 211.25 5.72C212.81 5.72 213.85 6.64 213.85 8.6L213.85 13.46L212.68 13.46L212.68 8.69C212.68 7.47 212.02 6.78 210.91 6.78ZM239.49 13.46L238.36 13.46L238.36 3.28L239.53 3.28L239.53 7.04L239.63 7.04C239.89 6.64 240.34 5.72 241.84 5.72C243.76 5.72 245.1 7.25 245.1 9.66C245.1 12.09 243.76 13.62 241.86 13.62C240.38 13.62 239.89 12.7 239.63 12.29L239.49 12.29L239.49 13.46ZM312.85 6.78C311.69 6.78 310.84 7.53 310.84 8.86L310.84 13.46L309.67 13.46L309.67 3.28L310.84 3.28L310.84 7.02L310.94 7.02C311.3 6.23 311.98 5.72 313.19 5.72C314.75 5.72 315.79 6.64 315.79 8.6L315.79 13.46L314.62 13.46L314.62 8.69C314.62 7.47 313.95 6.78 312.85 6.78ZM329.02 6.78C327.86 6.78 327.01 7.53 327.01 8.86L327.01 13.46L325.83 13.46L325.83 3.28L327.01 3.28L327.01 7.02L327.11 7.02C327.46 6.23 328.15 5.72 329.35 5.72C330.92 5.72 331.96 6.64 331.96 8.6L331.96 13.46L330.79 13.46L330.79 8.69C330.79 7.47 330.12 6.78 329.02 6.78ZM204.17 5.82L205.8 5.82L205.8 6.82L204.17 6.82L204.17 11.27C204.17 12.27 204.67 12.42 205.18 12.42C205.44 12.42 205.6 12.39 205.7 12.36L205.94 13.42C205.78 13.48 205.5 13.56 205.07 13.56C204.07 13.56 203 12.92 203 11.59L203 6.82L201.84 6.82L201.84 5.82L203 5.82L203 3.99L204.17 3.99L204.17 5.82ZM9.44 8.37C9.44 11.02 10.31 12.5 11.79 12.5C13.27 12.5 14.14 11.02 14.14 8.37C14.14 5.72 13.26 4.21 11.79 4.21C10.32 4.21 9.44 5.72 9.44 8.37ZM48.46 4.37L48.46 12.36L50.29 12.36C52.82 12.36 54.03 10.83 54.03 8.35C54.03 5.88 52.82 4.37 50.43 4.37L48.46 4.37ZM292.76 13.46L291.59 13.46L291.59 5.82L292.72 5.82L292.72 6.97L292.8 6.97C293.08 6.22 293.88 5.7 294.79 5.7C294.97 5.7 295.27 5.71 295.41 5.72L295.41 6.92C295.33 6.9 295 6.84 294.69 6.84C293.58 6.84 292.76 7.59 292.76 8.63L292.76 13.46ZM63.37 11.69C63.01 12.84 61.88 13.62 60.33 13.62C58.12 13.62 56.77 12.05 56.77 9.7C56.77 7.35 58.14 5.72 60.21 5.72C61.8 5.72 63.49 6.7 63.49 9.54L63.49 10.04L57.95 10.04C58 11.67 58.95 12.56 60.33 12.56C61.25 12.56 61.94 12.17 62.24 11.37L63.37 11.69ZM67.99 5.72C69.5 5.72 70.32 6.45 70.69 7.53L69.64 7.83C69.44 7.3 69.01 6.74 67.99 6.74C67.05 6.74 66.36 7.21 66.36 7.87C66.36 8.46 66.77 8.76 67.67 8.98L68.8 9.26C70.17 9.6 70.83 10.27 70.83 11.33C70.83 12.65 69.62 13.62 67.85 13.62C66.29 13.62 65.22 12.93 64.94 11.63L66.06 11.35C66.27 12.17 66.87 12.58 67.83 12.58C68.92 12.58 69.62 12.05 69.62 11.39C69.62 10.86 69.25 10.5 68.49 10.32L67.21 10.02C65.81 9.69 65.18 8.98 65.18 7.93C65.18 6.64 66.38 5.72 67.99 5.72ZM82.31 13.68C82.31 15.65 80.83 16.48 79 16.48C77.3 16.48 76.36 15.75 75.88 14.95L76.82 14.29C77.13 14.72 77.62 15.45 79 15.45C80.24 15.45 81.13 14.87 81.13 13.6L81.13 12.05L81.03 12.05C80.78 12.46 80.3 13.34 78.81 13.34C76.96 13.34 75.56 11.99 75.56 9.6C75.56 7.25 76.9 5.72 78.83 5.72C80.32 5.72 80.8 6.64 81.05 7.04L81.17 7.04L81.17 5.82L82.31 5.82L82.31 13.68ZM87.58 6.78C86.45 6.78 85.63 7.53 85.63 8.86L85.63 13.46L84.45 13.46L84.45 5.82L85.59 5.82L85.59 7.02L85.69 7.02C86.05 6.24 86.76 5.72 87.92 5.72C89.46 5.72 90.5 6.66 90.5 8.6L90.5 13.46L89.33 13.46L89.33 8.69C89.33 7.49 88.66 6.78 87.58 6.78ZM98.89 11.69C98.53 12.84 97.4 13.62 95.85 13.62C93.64 13.62 92.29 12.05 92.29 9.7C92.29 7.35 93.66 5.72 95.73 5.72C97.32 5.72 99.01 6.7 99.01 9.54L99.01 10.04L93.47 10.04C93.52 11.67 94.47 12.56 95.85 12.56C96.77 12.56 97.46 12.17 97.76 11.37L98.89 11.69ZM117.94 12.42C117.7 12.92 117.01 13.64 115.68 13.64C114.22 13.64 113.07 12.78 113.07 11.29C113.07 9.54 114.62 9.23 116.03 9.04C117.43 8.86 118 8.92 118 8.35L118 8.31C118 7.33 117.47 6.76 116.39 6.76C115.27 6.76 114.66 7.35 114.4 7.91L113.29 7.51C113.89 6.12 115.2 5.72 116.35 5.72C117.33 5.72 119.18 6 119.18 8.43L119.18 13.46L118 13.46L118 12.42L117.94 12.42ZM124.45 6.78C123.32 6.78 122.5 7.53 122.5 8.86L122.5 13.46L121.32 13.46L121.32 5.82L122.46 5.82L122.46 7.02L122.56 7.02C122.92 6.24 123.63 5.72 124.79 5.72C126.33 5.72 127.37 6.66 127.37 8.6L127.37 13.46L126.2 13.46L126.2 8.69C126.2 7.49 125.53 6.78 124.45 6.78ZM148.25 11.23C148.05 12.58 146.94 13.62 145.25 13.62C143.1 13.62 141.78 11.97 141.78 9.68C141.78 7.35 143.16 5.72 145.23 5.72C146.84 5.72 148.05 6.68 148.25 8.11L147.08 8.11C146.9 7.41 146.28 6.78 145.25 6.78C143.87 6.78 142.96 7.91 142.96 9.64C142.96 11.41 143.86 12.56 145.25 12.56C146.16 12.56 146.86 12.07 147.08 11.23L148.25 11.23ZM156.52 9.68C156.52 12.05 155.13 13.62 153.06 13.62C150.99 13.62 149.6 12.05 149.6 9.68C149.6 7.29 150.99 5.72 153.06 5.72C155.13 5.72 156.52 7.29 156.52 9.68ZM173.25 11.69C172.89 12.84 171.76 13.62 170.2 13.62C168 13.62 166.64 12.05 166.64 9.7C166.64 7.35 168.02 5.72 170.08 5.72C171.67 5.72 173.37 6.7 173.37 9.54L173.37 10.04L167.82 10.04C167.88 11.67 168.83 12.56 170.2 12.56C171.12 12.56 171.81 12.17 172.11 11.37L173.25 11.69ZM271.78 12.42C271.54 12.92 270.85 13.64 269.52 13.64C268.07 13.64 266.91 12.78 266.91 11.29C266.91 9.54 268.46 9.23 269.87 9.04C271.27 8.86 271.84 8.92 271.84 8.35L271.84 8.31C271.84 7.33 271.31 6.76 270.23 6.76C269.11 6.76 268.5 7.35 268.24 7.91L267.13 7.51C267.73 6.12 269.04 5.72 270.19 5.72C271.17 5.72 273.02 6 273.02 8.43L273.02 13.46L271.84 13.46L271.84 12.42L271.78 12.42ZM281.55 13.68C281.55 15.65 280.07 16.48 278.25 16.48C276.54 16.48 275.6 15.75 275.13 14.95L276.06 14.29C276.37 14.72 276.86 15.45 278.25 15.45C279.48 15.45 280.38 14.87 280.38 13.6L280.38 12.05L280.27 12.05C280.02 12.46 279.54 13.34 278.05 13.34C276.2 13.34 274.8 11.99 274.8 9.6C274.8 7.25 276.14 5.72 278.07 5.72C279.56 5.72 280.04 6.64 280.29 7.04L280.41 7.04L280.41 5.82L281.55 5.82L281.55 13.68ZM288.21 12.42C287.97 12.92 287.27 13.64 285.94 13.64C284.49 13.64 283.34 12.78 283.34 11.29C283.34 9.54 284.88 9.23 286.3 9.04C287.69 8.86 288.27 8.92 288.27 8.35L288.27 8.31C288.27 7.33 287.74 6.76 286.66 6.76C285.54 6.76 284.93 7.35 284.67 7.91L283.55 7.51C284.15 6.12 285.47 5.72 286.62 5.72C287.59 5.72 289.44 6 289.44 8.43L289.44 13.46L288.27 13.46L288.27 12.42L288.21 12.42ZM322.45 12.42C322.22 12.92 321.52 13.64 320.19 13.64C318.74 13.64 317.58 12.78 317.58 11.29C317.58 9.54 319.13 9.23 320.54 9.04C321.94 8.86 322.51 8.92 322.51 8.35L322.51 8.31C322.51 7.33 321.98 6.76 320.9 6.76C319.79 6.76 319.17 7.35 318.91 7.91L317.8 7.51C318.4 6.12 319.71 5.72 320.86 5.72C321.84 5.72 323.69 6 323.69 8.43L323.69 13.46L322.51 13.46L322.51 12.42L322.45 12.42ZM73.77 13.46L72.6 13.46L72.6 5.82L73.77 5.82L73.77 13.46ZM190.67 13.46L189.51 13.46L187.19 5.82L188.42 5.82L190.07 11.67L190.15 11.67L191.78 5.82L193.03 5.82L194.64 11.65L194.72 11.65L196.38 5.82L197.61 5.82L195.28 13.46L194.13 13.46L192.46 7.59L192.34 7.59L190.67 13.46ZM200.33 13.46L199.16 13.46L199.16 5.82L200.33 5.82L200.33 13.46ZM249.61 14.57C249.17 15.76 248.42 16.32 247.36 16.32C246.97 16.32 246.63 16.24 246.51 16.18L246.81 15.15C247.66 15.37 248.19 15.26 248.62 14.09L248.84 13.5L246.01 5.82L247.28 5.82L249.39 11.91L249.47 11.91L251.58 5.82L252.85 5.82L249.61 14.57ZM60.21 6.78C58.87 6.78 58.03 7.84 57.95 9.03L62.3 9.03C62.3 7.73 61.48 6.78 60.21 6.78ZM76.74 9.58C76.74 11.17 77.49 12.29 78.96 12.29C80.38 12.29 81.15 11.27 81.15 9.58C81.15 7.93 80.4 6.78 78.96 6.78C77.47 6.78 76.74 8.03 76.74 9.58ZM95.73 6.78C94.39 6.78 93.55 7.84 93.47 9.03L97.82 9.03C97.82 7.73 97 6.78 95.73 6.78ZM101.62 9.64C101.62 11.27 102.37 12.56 103.84 12.56C105.25 12.56 106.03 11.37 106.03 9.64C106.03 7.93 105.27 6.78 103.84 6.78C102.35 6.78 101.62 8.03 101.62 9.64ZM130.33 9.64C130.33 11.27 131.09 12.56 132.56 12.56C133.97 12.56 134.75 11.37 134.75 9.64C134.75 7.93 133.99 6.78 132.56 6.78C131.07 6.78 130.33 8.03 130.33 9.64ZM150.78 9.68C150.78 11.21 151.49 12.56 153.06 12.56C154.63 12.56 155.35 11.21 155.35 9.68C155.35 8.15 154.63 6.78 153.06 6.78C151.49 6.78 150.78 8.15 150.78 9.68ZM159.13 9.64C159.13 11.27 159.88 12.56 161.35 12.56C162.77 12.56 163.54 11.37 163.54 9.64C163.54 7.93 162.78 6.78 161.35 6.78C159.86 6.78 159.13 8.03 159.13 9.64ZM170.08 6.78C168.74 6.78 167.9 7.84 167.82 9.03L172.17 9.03C172.17 7.73 171.36 6.78 170.08 6.78ZM175.97 9.64C175.97 11.27 176.73 12.56 178.2 12.56C179.61 12.56 180.38 11.37 180.38 9.64C180.38 7.93 179.63 6.78 178.2 6.78C176.71 6.78 175.97 8.03 175.97 9.64ZM241.69 6.78C240.26 6.78 239.51 7.93 239.51 9.64C239.51 11.37 240.28 12.56 241.69 12.56C243.17 12.56 243.92 11.27 243.92 9.64C243.92 8.03 243.19 6.78 241.69 6.78ZM275.98 9.58C275.98 11.17 276.74 12.29 278.21 12.29C279.62 12.29 280.39 11.27 280.39 9.58C280.39 7.93 279.64 6.78 278.21 6.78C276.72 6.78 275.98 8.03 275.98 9.58ZM114.24 11.35C114.24 12.17 114.92 12.58 115.85 12.58C117.25 12.58 118 11.65 118 10.69L118 9.62C117.8 9.86 116.47 10 115.97 10.06C115.06 10.18 114.24 10.45 114.24 11.35ZM268.09 11.35C268.09 12.17 268.76 12.58 269.7 12.58C271.09 12.58 271.84 11.65 271.84 10.69L271.84 9.62C271.64 9.86 270.31 10 269.82 10.06C268.9 10.18 268.09 10.45 268.09 11.35ZM284.51 11.35C284.51 12.17 285.19 12.58 286.12 12.58C287.51 12.58 288.27 11.65 288.27 10.69L288.27 9.62C288.07 9.86 286.74 10 286.24 10.06C285.32 10.18 284.51 10.45 284.51 11.35ZM318.76 11.35C318.76 12.17 319.43 12.58 320.37 12.58C321.76 12.58 322.51 11.65 322.51 10.69L322.51 9.62C322.31 9.86 320.98 10 320.49 10.06C319.57 10.18 318.76 10.45 318.76 11.35Z" fill="#4B5563" fill-opacity="1.000000" fill-rule="evenodd"/>
	<path id="Text" d="M231.14 8.51L226.03 13.62L220.91 8.51C219.69 7.28 219.7 5.27 220.91 4.07C222.16 2.85 224.1 2.86 225.35 4.07L226.03 4.73L226.7 4.07C227.95 2.86 229.89 2.85 231.14 4.07C232.35 5.27 232.36 7.28 231.14 8.51Z" fill="#EF4444" fill-opacity="1.000000" fill-rule="evenodd"/>
</svg>
