<svg width="24.000000" height="24.000000" viewBox="0 0 24 24" fill="none" xmlns="http://www.w3.org/2000/svg" xmlns:xlink="http://www.w3.org/1999/xlink">
	<desc>
			Created with Pixso.
	</desc>
	<defs>
		<clipPath id="clip2_505">
			<rect id="Name=icon-figma, Size=24, Theme Mode=Light" width="24.000000" height="24.000000" fill="white" fill-opacity="0"/>
		</clipPath>
	</defs>
	<rect id="Name=icon-figma, Size=24, Theme Mode=Light" width="24.000000" height="24.000000" fill="#FFFFFF" fill-opacity="0"/>
	<g clip-path="url(#clip2_505)">
		<path id="Vector" d="M6.02 3.02C6.68 2.36 7.57 2 8.5 2L12 2L12 9L8.5 9C7.57 9 6.68 8.63 6.02 7.97C5.36 7.31 5 6.42 5 5.5C5 4.57 5.36 3.68 6.02 3.02Z" stroke="#4B5563" stroke-opacity="1.000000" stroke-width="2.000000" stroke-linejoin="round"/>
		<path id="Vector" d="M15.5 2C15.95 2 16.41 2.09 16.83 2.26C17.26 2.44 17.64 2.7 17.97 3.02C18.29 3.35 18.55 3.73 18.73 4.16C18.9 4.58 19 5.04 19 5.5C19 5.95 18.9 6.41 18.73 6.83C18.55 7.26 18.29 7.64 17.97 7.97C17.64 8.29 17.26 8.55 16.83 8.73C16.41 8.9 15.95 9 15.5 9L12 9L12 2L15.5 2Z" stroke="#4B5563" stroke-opacity="1.000000" stroke-width="2.000000" stroke-linejoin="round"/>
		<path id="Vector" d="M12.26 11.16C12.44 10.73 12.7 10.35 13.02 10.02C13.35 9.7 13.73 9.44 14.16 9.26C14.58 9.09 15.04 9 15.5 9C15.95 9 16.41 9.09 16.83 9.26C17.26 9.44 17.64 9.7 17.97 10.02C18.29 10.35 18.55 10.73 18.73 11.16C18.9 11.58 19 12.04 19 12.5C19 12.95 18.9 13.41 18.73 13.83C18.55 14.26 18.29 14.64 17.97 14.97C17.64 15.29 17.26 15.55 16.83 15.73C16.41 15.9 15.95 16 15.5 16C15.04 16 14.58 15.9 14.16 15.73C13.73 15.55 13.35 15.29 13.02 14.97C12.7 14.64 12.44 14.26 12.26 13.83C12.09 13.41 12 12.95 12 12.5C12 12.04 12.09 11.58 12.26 11.16Z" stroke="#4B5563" stroke-opacity="1.000000" stroke-width="2.000000" stroke-linejoin="round"/>
		<path id="Vector" d="M6.02 17.02C6.68 16.36 7.57 16 8.5 16L12 16L12 19.5C12 20.42 11.63 21.31 10.97 21.97C10.31 22.63 9.42 23 8.5 23C7.57 23 6.68 22.63 6.02 21.97C5.36 21.31 5 20.42 5 19.5C5 18.57 5.36 17.68 6.02 17.02Z" stroke="#4B5563" stroke-opacity="1.000000" stroke-width="2.000000" stroke-linejoin="round"/>
		<path id="Vector" d="M6.02 10.02C6.68 9.36 7.57 9 8.5 9L12 9L12 16L8.5 16C7.57 16 6.68 15.63 6.02 14.97C5.36 14.31 5 13.42 5 12.5C5 11.57 5.36 10.68 6.02 10.02Z" stroke="#4B5563" stroke-opacity="1.000000" stroke-width="2.000000" stroke-linejoin="round"/>
	</g>
</svg>
