<svg width="29.767334" height="64.000000" viewBox="0 0 29.7673 64" fill="none" xmlns="http://www.w3.org/2000/svg" xmlns:xlink="http://www.w3.org/1999/xlink">
	<desc>
			Created with Pixso.
	</desc>
	<defs>
		<clipPath id="clip316_316">
			<rect width="29.767441" height="64.000000" fill="white" fill-opacity="0"/>
		</clipPath>
	</defs>
	<rect width="29.767441" height="64.000000" fill="#FFFFFF" fill-opacity="0"/>
	<g clip-path="url(#clip316_316)">
		<path d="M20.59 7.13C17.89 3.94 15.57 0.7 15.09 0.03C15.04 -0.02 14.97 -0.02 14.92 0.03C14.44 0.7 12.12 3.94 9.42 7.13C-13.74 36.53 13.07 56.38 13.07 56.38L13.29 56.53C13.49 59.59 13.99 64 13.99 64L14.99 64L15.99 64C15.99 64 16.49 59.61 16.69 56.53L16.91 56.35C16.94 56.35 43.74 36.53 20.59 7.13ZM14.99 55.93C14.99 55.93 13.79 54.91 13.47 54.38L13.47 54.33L14.92 22.32C14.92 22.22 15.07 22.22 15.07 22.32L16.51 54.33L16.51 54.38C16.19 54.91 14.99 55.93 14.99 55.93Z" fill="#00684A" fill-opacity="1.000000" fill-rule="nonzero"/>
	</g>
</svg>
