<svg width="64.000000" height="64.000000" viewBox="0 0 64 64" fill="none" xmlns="http://www.w3.org/2000/svg" xmlns:xlink="http://www.w3.org/1999/xlink">
	<desc>
			Created with Pixso.
	</desc>
	<defs>
		<clipPath id="clip316_320">
			<rect width="64.000000" height="64.000000" fill="white" fill-opacity="0"/>
		</clipPath>
	</defs>
	<rect width="64.000000" height="64.000000" fill="#FFFFFF" fill-opacity="0"/>
	<g clip-path="url(#clip316_320)">
		<path d="M53.15 34.6C51.1 34.61 49.32 35.11 47.84 35.84C47.29 34.75 46.74 33.8 46.65 33.09C46.54 32.26 46.41 31.76 46.55 30.77C46.68 29.79 47.25 28.39 47.24 28.28C47.23 28.18 47.11 27.67 45.93 27.66C44.75 27.66 43.74 27.89 43.62 28.2C43.5 28.52 43.27 29.22 43.13 29.95C42.92 31.02 40.77 34.85 39.54 36.85C39.14 36.07 38.8 35.38 38.73 34.84C38.63 34.01 38.5 33.51 38.63 32.52C38.76 31.53 39.33 30.13 39.33 30.03C39.32 29.92 39.2 29.42 38.02 29.41C36.83 29.4 35.82 29.64 35.7 29.95C35.58 30.26 35.46 30.99 35.21 31.7C34.97 32.4 32.11 38.78 31.36 40.44C30.98 41.28 30.64 41.96 30.41 42.42L30.41 42.42C30.41 42.42 30.39 42.45 30.37 42.5C30.17 42.89 30.05 43.11 30.05 43.11C30.05 43.11 30.05 43.11 30.05 43.12C29.89 43.41 29.72 43.68 29.64 43.68C29.58 43.68 29.46 42.91 29.66 41.85C30.09 39.64 31.11 36.19 31.1 36.07C31.1 36.01 31.29 35.4 30.43 35.09C29.6 34.78 29.3 35.29 29.23 35.3C29.15 35.3 29.1 35.48 29.1 35.48C29.1 35.48 30.03 31.59 27.33 31.59C25.63 31.59 23.29 33.44 22.14 35.12C21.41 35.52 19.85 36.37 18.2 37.28C17.57 37.62 16.92 37.98 16.3 38.32C16.26 38.27 16.22 38.23 16.18 38.18C12.9 34.68 6.84 32.21 7.1 27.51C7.19 25.8 7.78 21.3 18.74 15.84C27.72 11.37 34.9 12.6 36.14 15.32C37.91 19.22 32.3 26.46 22.98 27.51C19.43 27.91 17.56 26.53 17.1 26.02C16.61 25.48 16.53 25.45 16.35 25.55C16.05 25.72 16.24 26.2 16.35 26.48C16.63 27.2 17.77 28.49 19.72 29.13C21.43 29.69 25.6 30 30.64 28.05C36.29 25.86 40.7 19.79 39.4 14.71C38.08 9.54 29.52 7.84 21.41 10.72C16.58 12.44 11.36 15.13 7.6 18.64C3.14 22.82 2.43 26.45 2.72 27.97C3.76 33.37 11.2 36.88 14.18 39.49C14.03 39.57 13.89 39.64 13.77 39.71C12.28 40.45 6.6 43.42 5.19 46.56C3.58 50.11 5.44 52.66 6.68 53.01C10.5 54.07 14.43 52.16 16.54 49.01C18.65 45.86 18.39 41.77 17.42 39.9C17.41 39.88 17.4 39.85 17.38 39.83C17.77 39.6 18.16 39.37 18.55 39.14C19.31 38.69 20.06 38.28 20.71 37.92C20.34 38.92 20.08 40.11 19.94 41.83C19.78 43.84 20.61 46.45 21.69 47.48C22.17 47.93 22.74 47.94 23.1 47.94C24.36 47.94 24.94 46.9 25.57 45.66C26.35 44.14 27.04 42.36 27.04 42.36C27.04 42.36 26.17 47.15 28.53 47.15C29.38 47.15 30.25 46.03 30.63 45.47C30.63 45.47 30.63 45.48 30.63 45.48C30.63 45.48 30.66 45.44 30.7 45.36C30.79 45.23 30.84 45.14 30.84 45.14C30.84 45.14 30.84 45.13 30.84 45.12C31.19 44.52 31.96 43.15 33.1 40.9C34.58 37.99 36.01 34.35 36.01 34.35C36.01 34.35 36.14 35.24 36.57 36.71C36.83 37.58 37.37 38.54 37.8 39.46C37.45 39.93 37.24 40.21 37.24 40.21C37.24 40.21 37.24 40.21 37.25 40.22C36.97 40.59 36.66 40.98 36.34 41.36C35.17 42.76 33.78 44.35 33.59 44.81C33.37 45.35 33.42 45.75 33.85 46.07C34.16 46.3 34.71 46.34 35.29 46.3C36.34 46.23 37.08 45.97 37.44 45.81C38.01 45.61 38.67 45.29 39.3 44.84C40.44 43.99 41.14 42.78 41.07 41.18C41.03 40.3 40.75 39.43 40.4 38.61C40.5 38.46 40.6 38.3 40.71 38.15C42.52 35.51 43.92 32.6 43.92 32.6C43.92 32.6 44.06 33.49 44.49 34.97C44.71 35.71 45.14 36.53 45.53 37.32C43.83 38.71 42.77 40.31 42.41 41.37C41.73 43.32 42.26 44.2 43.26 44.4C43.71 44.49 44.34 44.28 44.82 44.08C45.42 43.88 46.13 43.55 46.8 43.06C47.95 42.22 49.06 41.04 48.99 39.44C48.96 38.71 48.76 37.99 48.49 37.29C49.93 36.69 51.8 36.36 54.18 36.64C59.28 37.23 60.28 40.42 60.09 41.75C59.9 43.08 58.83 43.82 58.47 44.04C58.12 44.26 58.01 44.34 58.04 44.5C58.08 44.74 58.24 44.73 58.55 44.68C58.97 44.61 61.23 43.6 61.33 41.14C61.45 38.01 58.45 34.58 53.15 34.6ZM13.82 47.86C12.13 49.71 9.77 50.4 8.76 49.82C7.66 49.18 8.1 46.47 10.17 44.51C11.43 43.32 13.07 42.22 14.15 41.54C14.4 41.4 14.76 41.18 15.2 40.91C15.27 40.87 15.31 40.85 15.31 40.85L15.31 40.85C15.4 40.8 15.48 40.74 15.57 40.69C16.33 43.48 15.6 45.93 13.82 47.86ZM26.13 39.49C25.55 40.93 24.32 44.6 23.56 44.4C22.92 44.23 22.53 41.44 23.44 38.7C23.89 37.31 24.87 35.66 25.44 35.02C26.36 33.99 27.38 33.65 27.63 34.07C27.94 34.6 26.5 38.59 26.13 39.49ZM36.31 44.35C36.06 44.48 35.83 44.56 35.72 44.5C35.64 44.45 35.83 44.28 35.83 44.28C35.83 44.28 37.1 42.91 37.6 42.28C37.89 41.92 38.23 41.49 38.6 41.01C38.6 41.06 38.6 41.11 38.6 41.15C38.6 42.79 37.01 43.9 36.31 44.35ZM44.14 42.56C43.96 42.43 43.99 42 44.6 40.66C44.84 40.14 45.39 39.26 46.34 38.42C46.45 38.76 46.52 39.09 46.52 39.4C46.51 41.47 45.03 42.24 44.14 42.56Z" fill="#F06292" fill-opacity="1.000000" fill-rule="nonzero"/>
	</g>
</svg>
