<svg width="64.000000" height="64.000000" viewBox="0 0 64 64" fill="none" xmlns="http://www.w3.org/2000/svg" xmlns:xlink="http://www.w3.org/1999/xlink">
	<desc>
			Created with Pixso.
	</desc>
	<defs>
		<clipPath id="clip316_308">
			<rect width="64.000000" height="64.000000" fill="white" fill-opacity="0"/>
		</clipPath>
	</defs>
	<rect width="64.000000" height="64.000000" fill="#FFFFFF" fill-opacity="0"/>
	<g clip-path="url(#clip316_308)">
		<path d="M63.98 31.29C63.81 20.59 57.84 10.17 48.61 4.69C41.34 0.16 32.15 -1.06 23.88 1.03C11.43 4.16 1.5 15.44 0.24 28.29C-1.33 40.43 4.81 53.06 15.3 59.29C25.58 65.73 39.56 65.47 49.6 58.69C58.66 52.81 64.28 42.09 63.97 31.3L63.98 31.29ZM33.76 59.25C19.22 60.68 5.16 48.36 4.76 33.77C3.66 21.93 11.47 10.22 22.62 6.3C38.25 0.03 57.45 11.61 59.06 28.38C61.59 43.44 49.05 58.78 33.76 59.25ZM24.2 30.38L45.23 13.17L33.86 30.42C30.64 30.42 27.42 30.42 24.2 30.38ZM30.11 33.55L39.77 33.6L18.74 50.84L30.11 33.55Z" fill="#010101" fill-opacity="1.000000" fill-rule="nonzero"/>
	</g>
</svg>
