<svg width="69.818115" height="64.000000" viewBox="0 0 69.8181 64" fill="none" xmlns="http://www.w3.org/2000/svg" xmlns:xlink="http://www.w3.org/1999/xlink">
	<desc>
			Created with Pixso.
	</desc>
	<defs>
		<clipPath id="clip316_277">
			<rect width="69.818184" height="64.000000" fill="white" fill-opacity="0"/>
		</clipPath>
	</defs>
	<rect width="69.818184" height="64.000000" fill="#FFFFFF" fill-opacity="0"/>
	<g clip-path="url(#clip316_277)">
		<path d="M41.55 32C41.55 35.74 38.58 38.77 34.9 38.77C31.23 38.77 28.25 35.74 28.25 32C28.25 28.25 31.23 25.22 34.9 25.22C38.58 25.22 41.55 28.25 41.55 32Z" fill="#087EA4" fill-opacity="1.000000" fill-rule="evenodd"/>
		<path d="M34.9 47.23C16.54 47.23 1.66 40.41 1.66 32C1.66 23.58 16.54 16.76 34.9 16.76C53.27 16.76 68.15 23.58 68.15 32C68.15 40.41 53.27 47.23 34.9 47.23Z" stroke="#087EA4" stroke-opacity="1.000000" stroke-width="3.000000"/>
		<path d="M21.95 39.61C12.77 23.42 11.13 6.88 18.28 2.67C25.44 -1.54 38.68 8.18 47.86 24.38C57.04 40.57 58.68 57.11 51.53 61.32C44.37 65.53 31.13 55.81 21.95 39.61Z" stroke="#087EA4" stroke-opacity="1.000000" stroke-width="3.000000"/>
		<path d="M21.95 24.38C31.13 8.18 44.37 -1.54 51.53 2.67C58.68 6.88 57.04 23.42 47.86 39.61C38.68 55.81 25.44 65.53 18.28 61.32C11.12 57.11 12.77 40.57 21.95 24.38Z" stroke="#087EA4" stroke-opacity="1.000000" stroke-width="3.000000"/>
	</g>
</svg>
