<svg width="64.000000" height="64.000000" viewBox="0 0 64 64" fill="none" xmlns="http://www.w3.org/2000/svg" xmlns:xlink="http://www.w3.org/1999/xlink">
	<desc>
			Created with Pixso.
	</desc>
	<defs/>
	<path d="M0 64L0 0L64 0L64 64L0 64Z" fill="#FFD600" fill-opacity="1.000000" fill-rule="nonzero"/>
	<path d="M41.84 47.9C43.07 49.9 44.41 51.81 47.24 51.81C49.62 51.81 50.87 50.63 50.87 49C50.87 47.04 49.58 46.34 46.96 45.2L45.52 44.59C41.38 42.84 38.63 40.64 38.63 35.99C38.63 31.7 41.91 28.44 47.04 28.44C50.68 28.44 53.31 29.71 55.2 33.02L50.73 35.87C49.75 34.12 48.68 33.42 47.04 33.42C45.35 33.42 44.29 34.49 44.29 35.87C44.29 37.59 45.36 38.28 47.82 39.34L49.25 39.95C54.13 42.03 56.88 44.15 56.88 48.92C56.88 54.07 52.82 56.88 47.37 56.88C42.04 56.88 39.01 54.21 37.33 50.9L41.84 47.9ZM21.24 48.05C22.14 49.66 23.51 50.9 25.48 50.9C27.36 50.9 28.44 50.15 28.44 47.26L28.44 28.44L34.36 28.44L34.36 48.17C34.36 54.16 30.89 56.88 25.82 56.88C21.24 56.88 17.93 53.78 16.59 50.9L21.24 48.05Z" fill="#000001" fill-opacity="1.000000" fill-rule="nonzero"/>
</svg>
