<svg width="64.000000" height="64.000000" viewBox="0 0 64 64" fill="none" xmlns="http://www.w3.org/2000/svg" xmlns:xlink="http://www.w3.org/1999/xlink">
	<desc>
			Created with Pixso.
	</desc>
	<defs>
		<clipPath id="clip316_272">
			<rect width="64.000000" height="64.000000" fill="white" fill-opacity="0"/>
		</clipPath>
	</defs>
	<rect width="64.000000" height="64.000000" fill="#FFFFFF" fill-opacity="0"/>
	<g clip-path="url(#clip316_272)">
		<path d="M3 0L61 0C62.65 0 64 1.34 64 3L64 61C64 62.65 62.65 64 61 64L3 64C1.34 64 0 62.65 0 61L0 3C0 1.34 1.34 0 3 0Z" fill="#3178C6" fill-opacity="1.000000" fill-rule="evenodd"/>
		<path d="M37.13 49.73L37.13 56.74C38.26 57.33 39.61 57.76 41.16 58.06C42.71 58.35 44.34 58.5 46.06 58.5C47.74 58.5 49.33 58.33 50.84 58.01C52.34 57.69 53.67 57.16 54.8 56.42C55.94 55.69 56.84 54.72 57.5 53.53C58.16 52.34 58.5 50.87 58.5 49.12C58.5 47.84 58.31 46.73 57.93 45.77C57.55 44.82 57 43.97 56.29 43.22C55.57 42.48 54.72 41.81 53.72 41.22C52.72 40.62 51.6 40.06 50.35 39.54C49.43 39.16 48.6 38.79 47.88 38.43C47.15 38.07 46.53 37.71 46.02 37.34C45.51 36.96 45.12 36.57 44.84 36.15C44.56 35.74 44.42 35.27 44.42 34.74C44.42 34.26 44.55 33.82 44.8 33.44C45.04 33.05 45.39 32.72 45.84 32.44C46.3 32.16 46.85 31.95 47.5 31.79C48.16 31.64 48.89 31.56 49.69 31.56C50.27 31.56 50.89 31.61 51.54 31.69C52.18 31.78 52.84 31.92 53.49 32.1C54.15 32.28 54.78 32.51 55.4 32.79C56.02 33.07 56.59 33.39 57.12 33.75L57.12 27.2C56.06 26.79 54.89 26.49 53.63 26.29C52.37 26.09 50.93 26 49.3 26C47.64 26 46.06 26.17 44.58 26.53C43.09 26.89 41.78 27.45 40.65 28.21C39.53 28.97 38.63 29.94 37.98 31.11C37.32 32.29 37 33.69 37 35.33C37 37.42 37.6 39.2 38.8 40.68C40 42.15 41.82 43.4 44.27 44.43C45.23 44.82 46.13 45.21 46.96 45.59C47.79 45.97 48.51 46.36 49.11 46.77C49.72 47.18 50.19 47.63 50.54 48.11C50.89 48.59 51.07 49.14 51.07 49.75C51.07 50.2 50.96 50.62 50.74 51.01C50.52 51.4 50.19 51.73 49.74 52.02C49.3 52.3 48.75 52.53 48.08 52.69C47.42 52.85 46.65 52.93 45.76 52.93C44.24 52.93 42.74 52.66 41.26 52.13C39.77 51.6 38.39 50.8 37.13 49.73ZM25.35 32.27L34.5 32.27L34.5 26.5L9 26.5L9 32.27L18.1 32.27L18.1 58L25.35 58L25.35 32.27Z" fill="#FFFFFF" fill-opacity="1.000000" fill-rule="evenodd"/>
	</g>
</svg>
