<svg width="64.000000" height="64.000000" viewBox="0 0 64 64" fill="none" xmlns="http://www.w3.org/2000/svg" xmlns:xlink="http://www.w3.org/1999/xlink">
	<desc>
			Created with Pixso.
	</desc>
	<defs>
		<clipPath id="clip316_349">
			<rect width="64.000000" height="64.000000" fill="white" fill-opacity="0"/>
		</clipPath>
	</defs>
	<rect width="64.000000" height="64.000000" fill="#FFFFFF" fill-opacity="0"/>
	<g clip-path="url(#clip316_349)">
		<path d="M11.26 55.6L9.52 9.37C9.47 7.84 10.64 6.55 12.16 6.46L42.98 4.53L45.33 5.33L48.39 4.19L51.48 4C53.03 3.9 54.36 5.08 54.46 6.63C54.47 6.69 54.47 6.75 54.47 6.81L54.47 57.18C54.47 58.74 53.21 60 51.65 60C51.61 60 51.57 60 51.53 59.99L13.95 58.31C12.48 58.24 11.31 57.06 11.26 55.6Z" fill="#FF4081" fill-opacity="1.000000" fill-rule="evenodd"/>
		<path d="M48.39 4.19L42.98 4.53L42.71 10.88C42.7 11.11 42.88 11.3 43.12 11.32C43.21 11.32 43.31 11.29 43.39 11.23L45.85 9.36L47.93 11C48.11 11.15 48.38 11.12 48.52 10.93C48.58 10.86 48.62 10.76 48.61 10.66L48.39 4.2L48.39 4.19ZM44.17 25.45C43.19 26.22 35.81 26.74 35.81 25.64C35.96 21.46 34.09 21.28 33.05 21.28C32.07 21.28 30.4 21.58 30.4 23.82C30.4 26.1 32.83 27.39 35.69 28.9C39.74 31.05 44.65 33.65 44.65 40.19C44.65 46.46 39.55 49.92 33.05 49.92C26.35 49.92 20.49 47.21 21.15 37.8C21.41 36.7 29.93 36.96 29.93 37.8C29.83 41.69 30.71 42.83 32.95 42.83C34.66 42.83 35.44 41.88 35.44 40.29C35.44 37.88 32.91 36.46 30 34.82C26.05 32.61 21.41 30 21.41 24.02C21.41 18.05 25.52 14.07 32.84 14.07C40.17 14.07 44.17 17.99 44.17 25.45Z" fill="#FFFFFF" fill-opacity="1.000000" fill-rule="evenodd"/>
	</g>
</svg>
