<svg width="64.000000" height="64.000000" viewBox="0 0 64 64" fill="none" xmlns="http://www.w3.org/2000/svg" xmlns:xlink="http://www.w3.org/1999/xlink">
	<desc>
			Created with Pixso.
	</desc>
	<defs>
		<clipPath id="clip316_300">
			<rect width="64.000000" height="64.000000" fill="white" fill-opacity="0"/>
		</clipPath>
	</defs>
	<rect width="64.000000" height="64.000000" fill="#FFFFFF" fill-opacity="0"/>
	<g clip-path="url(#clip316_300)">
		<path d="M64 49.59C61.67 50.18 60.23 49.61 58.93 47.67L49.75 34.96L48.42 33.2L37.69 47.71C36.46 49.46 35.18 50.22 32.89 49.6L46.63 31.16L33.84 14.5C36.04 14.07 37.56 14.29 38.91 16.26L48.44 29.13L58.04 16.33C59.27 14.58 60.59 13.92 62.8 14.56L57.84 21.14L51.12 29.89C50.32 30.89 50.43 31.57 51.16 32.54L64 49.59ZM0.01 30.85L1.13 25.32C4.19 14.38 16.74 9.83 25.38 16.6C30.44 20.57 31.69 26.2 31.44 32.5L2.95 32.5C2.53 43.84 10.69 50.68 21.1 47.19C24.75 45.96 26.89 43.1 27.97 39.53C28.52 37.74 29.42 37.46 31.11 37.97C30.25 42.44 28.31 46.18 24.21 48.51C18.08 52.01 9.34 50.88 4.73 46.02C2 43.2 0.86 39.62 0.36 35.8C0.28 35.16 0.12 34.56 0 33.96C0.01 32.92 0.01 31.89 0.01 30.85L0.01 30.85ZM3.01 30.09L28.75 30.09C28.58 21.89 23.48 16.07 16.5 16.02C8.84 15.96 3.34 21.64 3.01 30.09Z" fill="#000000" fill-opacity="1.000000" fill-rule="nonzero"/>
	</g>
</svg>
