<svg width="64.000000" height="64.000000" viewBox="0 0 64 64" fill="none" xmlns="http://www.w3.org/2000/svg" xmlns:xlink="http://www.w3.org/1999/xlink">
	<desc>
			Created with Pixso.
	</desc>
	<defs>
		<clipPath id="clip316_340">
			<rect width="64.000000" height="64.000000" fill="white" fill-opacity="0"/>
		</clipPath>
	</defs>
	<rect width="64.000000" height="64.000000" fill="#FFFFFF" fill-opacity="0"/>
	<g clip-path="url(#clip316_340)">
		<path d="M1.13 40.47C0.38 37.73 0 34.87 0 32C0 18.87 8.24 6.88 20.5 2.14L22.11 6.31C11.55 10.38 4.46 20.7 4.46 32C4.46 34.47 4.79 36.93 5.44 39.29L1.13 40.47Z" fill="#58D09E" fill-opacity="1.000000" fill-rule="nonzero"/>
		<path d="M20.29 2.25C22.94 1.21 25.74 0.53 28.6 0.23C41.65 -1.14 54.45 5.8 60.44 17.5L56.46 19.54C51.31 9.46 40.3 3.49 29.07 4.67C26.6 4.93 24.2 5.51 21.92 6.4L20.29 2.25Z" fill="#58D09E" fill-opacity="1.000000" fill-rule="nonzero"/>
		<path d="M46.64 55.26C55.36 49.71 60.21 39.85 59.31 29.54C58.99 25.89 57.98 22.4 56.3 19.18L60.26 17.12C62.21 20.86 63.38 24.91 63.76 29.15C64.8 41.13 59.17 52.58 49.04 59.03L46.64 55.26Z" fill="#000000" fill-opacity="1.000000" fill-rule="nonzero"/>
		<path d="M22.5 25.39C25.09 25.39 27.2 26.78 28.28 29.18L28.37 29.37L32.71 27.9L32.62 27.67C30.94 23.57 27.06 21.02 22.5 21.02C19.29 21.02 16.68 22.05 14.53 24.16C12.39 26.26 11.31 28.9 11.31 32C11.31 35.08 12.39 37.71 14.53 39.81C16.68 41.92 19.29 42.94 22.5 42.94C27.06 42.94 30.94 40.39 32.62 36.3L32.71 36.07L28.36 34.59L28.28 34.79C27.31 37.16 25.15 38.57 22.5 38.57C20.69 38.57 19.17 37.94 17.96 36.7C16.74 35.44 16.13 33.86 16.13 32.01C16.13 30.14 16.73 28.59 17.96 27.27C19.17 26.02 20.69 25.39 22.5 25.39Z" fill="#000000" fill-opacity="1.000000" fill-rule="nonzero"/>
		<path d="M49.74 21.43L43.54 37.11L37.3 21.43L32.2 21.43L40.95 42.83L34.72 57.93L39.18 58.81L54.56 21.43L49.74 21.43Z" fill="#000000" fill-opacity="1.000000" fill-rule="nonzero"/>
		<path d="M35.52 55.98L34.43 58.61C34.22 59.13 33.72 59.49 33.17 59.51C32.8 59.52 32.43 59.53 32.06 59.53C19.26 59.53 7.94 50.51 5.13 38.08L0.78 39.06C2.35 46.03 6.3 52.36 11.9 56.88C17.57 61.46 24.71 63.98 32.01 64C32.02 64 32.07 64 32.07 64C32.5 64 32.93 63.98 33.35 63.97C35.64 63.87 37.69 62.44 38.57 60.31L39.99 56.87L35.52 55.98Z" fill="#000000" fill-opacity="1.000000" fill-rule="nonzero"/>
	</g>
</svg>
