<svg width="42.666748" height="64.000000" viewBox="0 0 42.6667 64" fill="none" xmlns="http://www.w3.org/2000/svg" xmlns:xlink="http://www.w3.org/1999/xlink">
	<desc>
			Created with Pixso.
	</desc>
	<defs>
		<clipPath id="clip316_332">
			<rect width="42.666668" height="64.000000" fill="white" fill-opacity="0"/>
		</clipPath>
	</defs>
	<rect width="42.666668" height="64.000000" fill="#FFFFFF" fill-opacity="0"/>
	<g clip-path="url(#clip316_332)">
		<path d="M21.33 31.99C21.33 29.17 22.45 26.45 24.45 24.45C26.45 22.45 29.17 21.33 32 21.33C34.82 21.33 37.54 22.45 39.54 24.45C41.54 26.45 42.66 29.17 42.66 31.99C42.66 34.82 41.54 37.54 39.54 39.54C37.54 41.54 34.82 42.66 32 42.66C29.17 42.66 26.45 41.54 24.45 39.54C22.45 37.54 21.33 34.82 21.33 31.99Z" fill="#1ABCFE" fill-opacity="1.000000" fill-rule="nonzero"/>
		<path d="M0 53.33C0 50.5 1.12 47.79 3.12 45.79C5.12 43.79 7.83 42.66 10.66 42.66L21.33 42.66L21.33 53.33C21.33 56.16 20.2 58.87 18.2 60.87C16.2 62.87 13.49 64 10.66 64C7.83 64 5.12 62.87 3.12 60.87C1.12 58.87 0 56.16 0 53.33Z" fill="#0ACF83" fill-opacity="1.000000" fill-rule="nonzero"/>
		<path d="M21.33 0L21.33 21.33L32 21.33C34.82 21.33 37.54 20.2 39.54 18.2C41.54 16.2 42.66 13.49 42.66 10.66C42.66 7.83 41.54 5.12 39.54 3.12C37.54 1.12 34.82 0 32 0L21.33 0Z" fill="#FF7262" fill-opacity="1.000000" fill-rule="nonzero"/>
		<path d="M0 10.66C0 13.49 1.12 16.2 3.12 18.2C5.12 20.2 7.83 21.33 10.66 21.33L21.33 21.33L21.33 0L10.66 0C7.83 0 5.12 1.12 3.12 3.12C1.12 5.12 0 7.83 0 10.66Z" fill="#F24E1E" fill-opacity="1.000000" fill-rule="nonzero"/>
		<path d="M0 31.99C0 34.82 1.12 37.54 3.12 39.54C5.12 41.54 7.83 42.66 10.66 42.66L21.33 42.66L21.33 21.33L10.66 21.33C7.83 21.33 5.12 22.45 3.12 24.45C1.12 26.45 0 29.17 0 31.99Z" fill="#A259FF" fill-opacity="1.000000" fill-rule="nonzero"/>
	</g>
</svg>
