<svg width="66.064453" height="64.000000" viewBox="0 0 66.0645 64" fill="none" xmlns="http://www.w3.org/2000/svg" xmlns:xlink="http://www.w3.org/1999/xlink">
	<desc>
			Created with Pixso.
	</desc>
	<defs>
		<clipPath id="clip316_304">
			<rect width="66.064514" height="64.000000" fill="white" fill-opacity="0"/>
		</clipPath>
	</defs>
	<rect width="66.064514" height="64.000000" fill="#FFFFFF" fill-opacity="0"/>
	<g clip-path="url(#clip316_304)">
		<path d="M38.28 1.06C37.83 1.06 37.41 1.15 37.02 1.28C37.85 1.83 38.3 2.56 38.52 3.39C38.54 3.5 38.57 3.58 38.59 3.69C38.61 3.79 38.62 3.89 38.62 3.99C38.69 5.41 38.25 5.59 37.94 6.43C37.48 7.51 37.6 8.68 38.17 9.62C38.22 9.73 38.28 9.86 38.36 9.97C37.75 5.88 41.15 5.26 41.78 3.99C41.83 2.87 40.91 2.12 40.19 1.61C39.49 1.19 38.86 1.06 38.28 1.06ZM43.41 1.98C43.35 2.35 43.4 2.25 43.38 2.45C43.37 2.58 43.37 2.74 43.35 2.87C43.32 3 43.28 3.13 43.24 3.26C43.2 3.39 43.16 3.52 43.11 3.65C43.04 3.78 42.99 3.89 42.93 4.02C42.88 4.08 42.85 4.15 42.8 4.21C42.77 4.26 42.74 4.31 42.7 4.36C42.62 4.47 42.54 4.58 42.46 4.68C42.36 4.78 42.28 4.89 42.17 4.97L42.17 4.99C42.07 5.07 41.98 5.17 41.86 5.25C41.53 5.51 41.14 5.7 40.78 5.94C40.67 6.02 40.56 6.09 40.46 6.19C40.35 6.27 40.25 6.35 40.15 6.45C40.04 6.54 39.96 6.64 39.86 6.75C39.78 6.85 39.69 6.96 39.62 7.08C39.54 7.19 39.46 7.3 39.4 7.42C39.33 7.55 39.28 7.66 39.22 7.79C39.17 7.92 39.12 8.03 39.09 8.16C39.04 8.31 39.01 8.44 38.98 8.56C38.96 8.63 38.96 8.71 38.94 8.78C38.93 8.84 38.93 8.9 38.91 8.97C38.91 9.1 38.9 9.24 38.9 9.37C38.9 9.47 38.9 9.57 38.91 9.67C38.91 9.79 38.93 9.92 38.96 10.07C38.98 10.2 39.01 10.33 39.04 10.46C39.09 10.59 39.12 10.72 39.17 10.85C39.2 10.93 39.25 11.01 39.28 11.07L35.57 9.63C34.94 9.45 34.33 9.29 33.7 9.15C33.36 9.07 33.02 8.99 32.68 8.9C31.72 8.71 30.73 8.56 29.75 8.47C29.72 8.47 29.7 8.45 29.67 8.45C28.7 8.35 27.75 8.31 26.78 8.31C26.07 8.31 25.36 8.34 24.66 8.39C23.68 8.45 22.7 8.58 21.71 8.74C21.47 8.78 21.23 8.82 20.99 8.87C20.49 8.97 20 9.08 19.53 9.2C19.29 9.26 19.05 9.33 18.81 9.39C18.57 9.49 18.34 9.6 18.11 9.7C17.94 9.78 17.76 9.86 17.58 9.94C17.55 9.96 17.52 9.96 17.5 9.97C17.34 10.05 17.19 10.12 17.05 10.2C17 10.22 16.97 10.23 16.94 10.25C16.76 10.33 16.58 10.43 16.44 10.51C16.32 10.55 16.21 10.62 16.11 10.67C16.06 10.7 16 10.73 15.97 10.75C15.82 10.83 15.68 10.91 15.55 10.99C15.4 11.07 15.27 11.15 15.16 11.23C15.05 11.32 14.94 11.38 14.84 11.46C14.82 11.48 14.81 11.48 14.79 11.49C14.69 11.56 14.58 11.64 14.48 11.72C14.48 11.72 14.47 11.74 14.45 11.75C14.37 11.82 14.29 11.88 14.21 11.95C14.18 11.96 14.14 12 14.11 12.01C14.03 12.08 13.95 12.16 13.87 12.22C13.85 12.25 13.82 12.27 13.81 12.29C13.71 12.38 13.61 12.46 13.52 12.56C13.5 12.56 13.5 12.58 13.48 12.59C13.39 12.67 13.29 12.77 13.19 12.87C13.18 12.89 13.18 12.9 13.16 12.9C13.08 12.98 13 13.06 12.92 13.16C12.89 13.19 12.84 13.22 12.81 13.26C12.72 13.35 12.63 13.45 12.53 13.55C12.52 13.58 12.48 13.6 12.47 13.63C12.34 13.76 12.22 13.89 12.1 14.02C12.08 14.03 12.06 14.05 12.05 14.07C11.79 14.34 11.51 14.62 11.22 14.86C10.93 15.12 10.63 15.36 10.32 15.57C10 15.8 9.69 15.99 9.35 16.19C9.03 16.36 8.69 16.53 8.34 16.67C8 16.82 7.64 16.95 7.29 17.06C6.61 17.21 5.92 17.48 5.32 17.53C5.19 17.53 5.04 17.56 4.92 17.58C4.77 17.61 4.64 17.64 4.51 17.67C4.38 17.72 4.25 17.77 4.12 17.82C4 17.87 3.87 17.93 3.74 18C3.62 18.08 3.5 18.14 3.38 18.22C3.27 18.31 3.16 18.4 3.06 18.5C2.95 18.58 2.83 18.69 2.74 18.79C2.64 18.9 2.54 19 2.46 19.11C2.38 19.24 2.29 19.36 2.22 19.49C2.14 19.6 2.06 19.73 2 19.86C1.93 20 1.87 20.13 1.82 20.28C1.77 20.41 1.72 20.55 1.67 20.7C1.64 20.83 1.61 20.96 1.59 21.09C1.59 21.11 1.58 21.12 1.58 21.14C1.54 21.28 1.54 21.48 1.53 21.57C1.51 21.69 1.49 21.78 1.49 21.9C1.49 21.96 1.49 22.04 1.51 22.11C1.53 22.22 1.54 22.32 1.58 22.42C1.61 22.51 1.64 22.61 1.69 22.71L1.69 22.72C1.74 22.82 1.8 22.92 1.87 23.01C1.93 23.11 2 23.21 2.08 23.31C2.16 23.39 2.25 23.48 2.35 23.56C2.45 23.66 2.54 23.74 2.66 23.82C3.04 24.16 3.14 24.28 3.64 24.54C3.72 24.58 3.8 24.62 3.9 24.66C3.92 24.66 3.93 24.68 3.95 24.68C3.95 24.71 3.95 24.73 3.96 24.76C3.98 24.89 4.01 25.02 4.04 25.15C4.08 25.3 4.12 25.43 4.17 25.54C4.22 25.64 4.25 25.73 4.3 25.83C4.32 25.86 4.33 25.89 4.35 25.91C4.42 26.04 4.48 26.15 4.54 26.27C4.63 26.38 4.71 26.49 4.79 26.61C4.87 26.7 4.96 26.82 5.06 26.91C5.16 27.01 5.25 27.09 5.37 27.19C5.37 27.19 5.38 27.21 5.4 27.21C5.5 27.29 5.59 27.37 5.69 27.43C5.8 27.51 5.92 27.58 6.04 27.64C6.16 27.71 6.29 27.77 6.42 27.82C6.51 27.87 6.63 27.9 6.74 27.93C6.75 27.95 6.77 27.95 6.8 27.97C6.87 27.98 6.95 28 7.01 28.01C6.96 28.89 6.95 29.71 7.08 30C7.22 30.33 7.93 29.34 8.64 28.21C8.55 29.33 8.48 30.64 8.64 31.02C8.82 31.43 9.79 30.17 10.63 28.77C22.07 26.12 32.51 34.05 33.6 45.25C33.39 43.5 31.25 42.53 30.26 42.77C29.78 43.97 28.96 45.51 27.63 46.46C27.75 45.39 27.7 44.29 27.47 43.22C27.12 44.71 26.42 46.1 25.47 47.3C23.94 47.42 22.41 46.67 21.6 45.55C21.53 45.51 21.52 45.41 21.47 45.34C21.42 45.23 21.37 45.12 21.34 45C21.29 44.89 21.26 44.78 21.24 44.66C21.23 44.55 21.23 44.44 21.23 44.31C21.23 44.23 21.23 44.15 21.23 44.07C21.24 43.95 21.28 43.84 21.31 43.73C21.34 43.61 21.37 43.5 21.42 43.39C21.49 43.27 21.53 43.16 21.62 43.05C21.89 42.27 21.89 41.64 21.39 41.27C21.29 41.2 21.2 41.15 21.08 41.1C21.02 41.09 20.94 41.06 20.87 41.04C20.82 41.02 20.79 41.01 20.74 40.99C20.63 40.96 20.52 40.93 20.41 40.91C20.29 40.88 20.18 40.86 20.07 40.86C19.95 40.85 19.82 40.83 19.71 40.83C19.63 40.83 19.55 40.85 19.47 40.85C19.34 40.85 19.23 40.86 19.11 40.89C19 40.91 18.89 40.93 18.78 40.96C18.66 40.99 18.55 41.02 18.44 41.07C18.32 41.12 18.23 41.17 18.11 41.22C18.02 41.27 17.92 41.33 17.81 41.38C14.05 43.84 16.29 49.6 18.86 51.27C17.89 51.44 16.9 51.65 16.63 51.87C16.61 51.88 16.6 51.9 16.6 51.9C17.29 52.32 18.02 52.67 18.78 52.98C19.81 53.32 20.91 53.63 21.39 53.76L21.39 53.77C22.73 54.05 24.08 54.15 25.46 54.07C32.6 53.56 38.46 48.11 39.53 40.93C39.56 41.07 39.59 41.2 39.62 41.35C39.67 41.64 39.74 41.95 39.77 42.25L39.77 42.27C39.8 42.42 39.82 42.56 39.83 42.69L39.83 42.76C39.85 42.9 39.86 43.05 39.86 43.18C39.88 43.35 39.9 43.53 39.9 43.71L39.9 43.97C39.9 44.05 39.91 44.15 39.91 44.23C39.91 44.32 39.9 44.42 39.9 44.52L39.9 44.75C39.9 44.86 39.88 44.96 39.88 45.07C39.88 45.13 39.88 45.2 39.86 45.28C39.86 45.39 39.85 45.51 39.85 45.64C39.83 45.68 39.83 45.73 39.83 45.78C39.82 45.91 39.8 46.02 39.78 46.15C39.78 46.2 39.78 46.25 39.77 46.3C39.75 46.46 39.72 46.61 39.7 46.77L39.7 46.78L39.7 46.8C39.67 46.95 39.64 47.11 39.61 47.25L39.61 47.3C39.57 47.45 39.54 47.59 39.51 47.74C39.51 47.76 39.49 47.79 39.49 47.8C39.46 47.95 39.43 48.1 39.38 48.24L39.38 48.29C39.33 48.45 39.28 48.6 39.25 48.74C39.23 48.76 39.23 48.77 39.23 48.77C39.19 48.94 39.14 49.1 39.09 49.26C39.02 49.42 38.98 49.57 38.91 49.73C38.85 49.89 38.8 50.05 38.73 50.2C38.67 50.36 38.61 50.51 38.54 50.67L38.52 50.67C38.46 50.81 38.4 50.98 38.31 51.12C38.3 51.17 38.28 51.2 38.27 51.23C38.25 51.25 38.25 51.27 38.23 51.28C37.19 53.4 35.64 55.26 33.7 56.72C33.57 56.8 33.44 56.9 33.31 56.99C33.28 57.03 33.23 57.04 33.2 57.08C33.09 57.16 32.97 57.24 32.84 57.32L32.89 57.42L32.91 57.42C33.14 57.38 33.36 57.35 33.59 57.32L33.6 57.32C34.02 57.25 34.44 57.17 34.86 57.09C34.97 57.08 35.1 57.04 35.22 57.01C35.3 56.99 35.36 56.98 35.44 56.96C35.56 56.95 35.67 56.91 35.78 56.9C35.88 56.87 35.98 56.85 36.07 56.82C37.69 56.43 39.25 55.89 40.75 55.26C38.19 58.77 34.75 61.61 30.73 63.47C32.59 63.34 34.44 63.03 36.23 62.51C42.74 60.59 48.21 56.2 51.48 50.3C50.82 54.03 49.34 57.59 47.14 60.7C48.71 59.66 50.14 58.47 51.45 57.11C55.06 53.32 57.43 48.52 58.24 43.35C58.79 45.91 58.95 48.55 58.71 51.15C70.36 34.86 59.68 17.97 55.21 13.52C55.19 13.48 55.18 13.47 55.18 13.44C55.16 13.45 55.16 13.45 55.16 13.47C55.16 13.45 55.16 13.45 55.14 13.44C55.14 13.63 55.13 13.82 55.11 14.02C55.06 14.39 55.01 14.75 54.95 15.1C54.87 15.46 54.77 15.81 54.68 16.17C54.56 16.51 54.43 16.87 54.29 17.21C54.14 17.53 53.98 17.87 53.8 18.19C53.63 18.5 53.43 18.82 53.22 19.11C53.01 19.42 52.79 19.71 52.56 19.99C52.32 20.28 52.06 20.54 51.8 20.8C51.64 20.94 51.5 21.07 51.34 21.2C51.21 21.32 51.09 21.41 50.96 21.53C50.67 21.75 50.38 21.96 50.06 22.16C49.75 22.35 49.43 22.55 49.11 22.71C48.77 22.87 48.43 23.01 48.09 23.16C47.75 23.29 47.4 23.4 47.04 23.5C46.69 23.6 46.32 23.68 45.96 23.74C45.59 23.81 45.22 23.84 44.87 23.87C44.61 23.89 44.35 23.9 44.09 23.9C43.72 23.9 43.35 23.87 42.99 23.84C42.62 23.81 42.25 23.76 41.9 23.68C41.53 23.61 41.17 23.52 40.82 23.4L40.8 23.4C41.15 23.37 41.51 23.34 41.86 23.27C42.24 23.21 42.59 23.13 42.95 23.03C43.3 22.93 43.66 22.82 43.99 22.69C44.35 22.56 44.69 22.4 45.01 22.24C45.35 22.08 45.66 21.9 45.98 21.7C46.29 21.49 46.59 21.28 46.88 21.06C47.17 20.83 47.45 20.59 47.71 20.33C47.98 20.09 48.22 19.81 48.46 19.54C48.71 19.24 48.93 18.95 49.14 18.66C49.17 18.61 49.21 18.55 49.24 18.5C49.4 18.24 49.56 17.98 49.71 17.72C49.88 17.4 50.04 17.08 50.19 16.74C50.34 16.4 50.46 16.06 50.58 15.7C50.69 15.36 50.77 15 50.85 14.65C50.92 14.28 50.98 13.92 51.01 13.56C51.05 13.19 51.08 12.82 51.08 12.46C51.08 12.21 51.06 11.95 51.05 11.69C51.01 11.32 50.96 10.96 50.92 10.6C50.85 10.23 50.77 9.88 50.67 9.52C50.56 9.18 50.45 8.82 50.32 8.48C50.19 8.14 50.03 7.8 49.87 7.48C49.69 7.16 49.51 6.83 49.32 6.53C49.11 6.22 48.9 5.93 48.67 5.64C48.43 5.36 48.19 5.09 47.93 4.81C47.8 4.68 47.66 4.54 47.51 4.41C46.79 3.84 46.03 3.31 45.27 2.82C45.16 2.76 45.06 2.71 44.95 2.66C44.41 2.32 43.91 2.14 43.41 1.98Z" fill="#E0234E" fill-opacity="1.000000" fill-rule="evenodd"/>
	</g>
</svg>
