<svg width="56.320068" height="64.000000" viewBox="0 0 56.3201 64" fill="none" xmlns="http://www.w3.org/2000/svg" xmlns:xlink="http://www.w3.org/1999/xlink">
	<desc>
			Created with Pixso.
	</desc>
	<defs>
		<clipPath id="clip316_295">
			<rect width="56.320004" height="64.000000" fill="white" fill-opacity="0"/>
		</clipPath>
	</defs>
	<rect width="56.320004" height="64.000000" fill="#FFFFFF" fill-opacity="0"/>
	<g clip-path="url(#clip316_295)">
		<path d="M28.25 64C27.4 64 26.6 63.76 25.85 63.35L18.24 58.75C17.1 58.11 17.67 57.87 18.02 57.76C19.56 57.23 19.85 57.11 21.45 56.18C21.62 56.06 21.85 56.12 22.02 56.24L27.85 59.8C28.08 59.91 28.37 59.91 28.54 59.8L51.36 46.33C51.59 46.21 51.71 45.98 51.71 45.68L51.71 18.8C51.71 18.51 51.59 18.28 51.36 18.16L28.54 4.75C28.31 4.63 28.03 4.63 27.85 4.75L5.03 18.16C4.8 18.28 4.69 18.57 4.69 18.8L4.69 45.68C4.69 45.92 4.8 46.21 5.03 46.33L11.27 50C14.64 51.75 16.76 49.71 16.76 47.67L16.76 21.13C16.76 20.78 17.04 20.43 17.44 20.43L20.36 20.43C20.7 20.43 21.05 20.73 21.05 21.13L21.05 47.67C21.05 52.27 18.59 54.96 14.3 54.96C12.98 54.96 11.95 54.96 9.04 53.5L3.03 50C1.54 49.12 0.63 47.49 0.63 45.74L0.63 18.86C0.63 17.11 1.54 15.48 3.03 14.6L25.85 1.13C27.28 0.32 29.23 0.32 30.66 1.13L53.48 14.6C54.97 15.48 55.88 17.11 55.88 18.86L55.88 45.74C55.88 47.49 54.97 49.12 53.48 50L30.66 63.47C29.97 63.76 29.11 64 28.25 64Z" fill="#5FA04E" fill-opacity="1.000000" fill-rule="nonzero"/>
		<path d="M35.35 45.51C25.34 45.51 23.28 40.84 23.28 36.88C23.28 36.53 23.56 36.18 23.96 36.18L26.94 36.18C27.28 36.18 27.57 36.41 27.57 36.76C28.03 39.85 29.34 41.37 35.4 41.37C40.21 41.37 42.27 40.26 42.27 37.64C42.27 36.12 41.7 35.01 34.2 34.25C27.97 33.61 24.08 32.21 24.08 27.14C24.08 22.42 27.97 19.62 34.49 19.62C41.81 19.62 45.41 22.18 45.87 27.78C45.87 27.96 45.81 28.13 45.7 28.31C45.59 28.42 45.41 28.54 45.24 28.54L42.21 28.54C41.92 28.54 41.64 28.31 41.58 28.01C40.9 24.81 39.12 23.76 34.43 23.76C29.17 23.76 28.54 25.62 28.54 27.02C28.54 28.71 29.28 29.24 36.38 30.17C43.41 31.11 46.73 32.45 46.73 37.46C46.73 42.59 42.55 45.51 35.35 45.51Z" fill="#5FA04E" fill-opacity="1.000000" fill-rule="nonzero"/>
	</g>
</svg>
