<svg width="100.923828" height="26.125488" viewBox="0 0 100.924 26.1255" fill="none" xmlns="http://www.w3.org/2000/svg" xmlns:xlink="http://www.w3.org/1999/xlink">
	<desc>
			Created with Pixso.
	</desc>
	<defs/>
	<path id="&lt;SS /&gt;" d="M79.53 0L83.44 0L76.41 26.12L72.5 26.12L79.53 0ZM14.99 20.55L-8.78e-5 13.94L-8.78e-5 10.19L14.99 3.59L14.99 7.91L4.87 11.97L4.87 12.17L14.99 16.23L14.99 20.55ZM100.92 12.24L100.92 15.99L85.92 22.6L85.92 18.28L96.05 14.21L96.05 14.02L85.92 9.95L85.92 5.63L100.92 12.24Z" fill="#111827" fill-opacity="1.000000" fill-rule="evenodd"/>
	<path id="&lt;SS /&gt;" d="M24.36 17.87L22.74 22.84L17.8 22.84L25.34 1.02L31.28 1.02L38.8 22.84L33.86 22.84L32.24 17.87L24.36 17.87ZM40.82 22.84L40.82 1.02L46.51 1.02L52.52 15.68L52.78 15.68L58.78 1.02L64.47 1.02L64.47 22.84L60 22.84L60 8.64L59.82 8.64L54.17 22.73L51.12 22.73L45.48 8.59L45.3 8.59L45.3 22.84L40.82 22.84ZM28.22 6.01L25.54 14.26L31.08 14.26L28.39 6.01L28.22 6.01Z" fill="#111827" fill-opacity="1.000000" fill-rule="evenodd"/>
</svg>
