<svg width="64.000000" height="64.000000" viewBox="0 0 64 64" fill="none" xmlns="http://www.w3.org/2000/svg" xmlns:xlink="http://www.w3.org/1999/xlink">
	<desc>
			Created with Pixso.
	</desc>
	<defs>
		<clipPath id="clip333_781">
			<rect id="icon-user" width="40.000000" height="40.000000" transform="translate(12.000000 12.000000)" fill="white" fill-opacity="0"/>
		</clipPath>
		<clipPath id="clip333_780">
			<rect id="icon-avatar" rx="32.000000" width="64.000000" height="64.000000" fill="white" fill-opacity="0"/>
		</clipPath>
	</defs>
	<rect id="icon-avatar" rx="32.000000" width="64.000000" height="64.000000" fill="#9CA3AF" fill-opacity="1.000000"/>
	<g clip-path="url(#clip333_780)">
		<rect id="icon-user" width="40.000000" height="40.000000" transform="translate(12.000000 12.000000)" fill="#FFFFFF" fill-opacity="0"/>
		<g clip-path="url(#clip333_781)">
			<path id="Vector" d="M24.5 22C24.5 20.01 25.29 18.1 26.69 16.69C28.1 15.29 30.01 14.5 32 14.5C33.98 14.5 35.89 15.29 37.3 16.69C38.7 18.1 39.5 20.01 39.5 22C39.5 23.98 38.7 25.89 37.3 27.3C35.89 28.71 33.98 29.5 32 29.5C30.01 29.5 28.1 28.71 26.69 27.3C25.29 25.89 24.5 23.98 24.5 22ZM18.25 45.5C18.3 41.89 19.78 38.45 22.35 35.92C24.92 33.39 28.39 31.97 32 31.97C35.6 31.97 39.07 33.39 41.64 35.92C44.21 38.45 45.69 41.89 45.74 45.5C45.75 45.75 45.68 45.99 45.55 46.19C45.42 46.4 45.24 46.56 45.02 46.66C40.93 48.53 36.49 49.5 32 49.5C27.35 49.5 22.94 48.48 18.98 46.66C18.75 46.56 18.57 46.4 18.44 46.19C18.31 45.99 18.24 45.75 18.25 45.5Z" fill="#000000" fill-opacity="1.000000" fill-rule="evenodd"/>
		</g>
	</g>
</svg>
