<svg width="102.000000" height="28.000000" viewBox="0 0 102 28" fill="none" xmlns="http://www.w3.org/2000/svg" xmlns:xlink="http://www.w3.org/1999/xlink">
	<desc>
			Created with Pixso.
	</desc>
	<defs/>
	<mask id="mask325_186" mask-type="alpha" maskUnits="userSpaceOnUse" x="0.000000" y="0.000000" width="102.000000" height="28.000000">
		<path id="Vector" d="M0 0L102 0L102 28L0 28L0 0Z" fill="#000000" fill-opacity="1.000000" fill-rule="evenodd"/>
	</mask>
	<g mask="url(#mask325_186)">
		<path id="Vector" d="M28.18 19.05C27.13 19 26.11 18.69 25.21 18.16C24.31 17.62 23.55 16.88 23 15.99C23.67 10.65 25.62 9 28.2 9C30.78 9 32.74 10.99 32.74 13.99C32.74 16.99 30.74 18.99 28.2 18.99L28.18 19.05ZM28.2 5.65C26.37 5.58 24.59 6.15 23.14 7.26C21.7 8.37 20.69 9.96 20.29 11.73C19.44 9.94 18.79 8.06 18.37 6.12L12 6.12L12 14.01C12 16.88 10.7 19.01 8.15 19.01C5.6 19.01 4.15 16.89 4.15 14.01L4.15 6.12L0.48 6.12L0.48 14.01C0.4 16.2 1.16 18.34 2.6 19.99C3.3 20.76 4.15 21.36 5.11 21.77C6.07 22.18 7.1 22.37 8.14 22.34C12.55 22.34 15.64 18.95 15.64 14.1L15.64 8.76C16.38 11.64 17.62 14.36 19.29 16.81L17.34 27.99L21.06 27.99L22.35 20.08C22.77 20.44 23.23 20.78 23.71 21.08C24.95 21.86 26.38 22.3 27.85 22.35L28.19 22.35C29.28 22.37 30.36 22.16 31.37 21.74C32.38 21.32 33.29 20.7 34.06 19.92C34.82 19.14 35.42 18.21 35.82 17.19C36.21 16.18 36.4 15.09 36.37 13.99C36.39 12.91 36.2 11.82 35.8 10.81C35.39 9.8 34.79 8.88 34.03 8.1C33.27 7.33 32.35 6.72 31.35 6.3C30.34 5.88 29.26 5.68 28.18 5.68L28.2 5.65Z" fill="#14A800" fill-opacity="1.000000" fill-rule="nonzero"/>
		<path id="Vector" d="M80.8 7.85L80.8 6.17L77.19 6.17L77.19 21.81L80.84 21.81L80.84 15.68C80.84 11.92 81.18 9.2 86.25 9.55L86.25 6C83.88 5.81 82.05 6.3 80.8 7.87L80.8 7.85Z" fill="#14A800" fill-opacity="1.000000" fill-rule="nonzero"/>
		<path id="Vector" d="M55.51 6.16L52.87 17.1L50.05 6.16L45.4 6.16L42.59 17.1L39.95 6.16L36.25 6.16L40.31 21.81L44.68 21.81L47.73 10.71L50.74 21.81L55.12 21.81L59.39 6.16L55.51 6.16Z" fill="#14A800" fill-opacity="1.000000" fill-rule="nonzero"/>
		<path id="Vector" d="M67.42 19.06C64.83 19.06 62.89 17.02 62.89 14.06C62.89 11.12 64.89 9.06 67.42 9.06C69.95 9.06 72 11 72 14C72 17 70 19 67.46 19L67.42 19.06ZM67.46 5.65C66.36 5.63 65.27 5.84 64.26 6.25C63.25 6.67 62.33 7.28 61.57 8.07C60.8 8.85 60.2 9.77 59.8 10.79C59.4 11.81 59.21 12.9 59.25 14C59.21 15.09 59.39 16.19 59.78 17.21C60.18 18.24 60.77 19.17 61.54 19.96C62.3 20.75 63.21 21.38 64.22 21.81C65.23 22.24 66.32 22.46 67.42 22.46C68.52 22.46 69.61 22.24 70.62 21.81C71.63 21.38 72.54 20.75 73.3 19.96C74.07 19.17 74.66 18.24 75.06 17.21C75.45 16.19 75.63 15.09 75.6 14C75.62 12.91 75.43 11.83 75.03 10.81C74.63 9.8 74.03 8.88 73.27 8.11C72.5 7.33 71.59 6.72 70.59 6.3C69.58 5.88 68.5 5.68 67.42 5.68L67.46 5.65Z" fill="#14A800" fill-opacity="1.000000" fill-rule="nonzero"/>
		<path id="Vector" d="M91.47 14.13L92.31 14.13L97.4 21.81L101.51 21.81L95.66 13.29C97.06 12.7 98.26 11.72 99.11 10.45C99.95 9.19 100.4 7.7 100.4 6.18L96.77 6.18C96.77 9.55 94.11 10.83 91.47 10.83L91.47 0L87.82 0L87.82 21.81L91.46 21.81L91.47 14.13Z" fill="#14A800" fill-opacity="1.000000" fill-rule="nonzero"/>
	</g>
</svg>
