<svg width="32.000000" height="32.000000" viewBox="0 0 32 32" fill="none" xmlns="http://www.w3.org/2000/svg" xmlns:xlink="http://www.w3.org/1999/xlink">
	<desc>
			Created with Pixso.
	</desc>
	<defs>
		<clipPath id="clip327_366">
			<rect id="Icon" width="32.000000" height="32.000000" fill="white" fill-opacity="0"/>
		</clipPath>
	</defs>
	<rect id="Icon" width="32.000000" height="32.000000" fill="#FFFFFF" fill-opacity="0"/>
	<g clip-path="url(#clip327_366)">
		<path id="Vector" d="M29.33 26.56C29.33 26.93 29.25 27.29 29.11 27.63C28.96 27.97 28.74 28.28 28.46 28.53C28.19 28.78 27.87 28.97 27.52 29.09C27.16 29.21 26.79 29.26 26.42 29.22C22.32 28.78 18.38 27.37 14.92 25.13C11.69 23.08 8.96 20.35 6.92 17.13C4.66 13.65 3.26 9.69 2.82 5.57C2.79 5.2 2.83 4.83 2.95 4.48C3.07 4.13 3.26 3.8 3.51 3.53C3.76 3.26 4.06 3.04 4.4 2.89C4.74 2.74 5.1 2.66 5.47 2.66L9.47 2.66C10.12 2.66 10.75 2.88 11.24 3.31C11.73 3.73 12.05 4.31 12.14 4.95C12.31 6.24 12.62 7.49 13.08 8.7C13.25 9.18 13.29 9.7 13.19 10.2C13.08 10.69 12.83 11.15 12.48 11.52L10.78 13.21C12.68 16.55 15.44 19.31 18.78 21.21L20.48 19.52C20.84 19.16 21.3 18.91 21.79 18.8C22.29 18.7 22.81 18.74 23.29 18.91C24.5 19.37 25.76 19.68 27.04 19.85C27.68 19.94 28.27 20.27 28.7 20.77C29.12 21.26 29.34 21.9 29.33 22.56L29.33 26.56Z" stroke="#4B5563" stroke-opacity="1.000000" stroke-width="2.000000" stroke-linejoin="round"/>
	</g>
</svg>
